<svg width="24" height="24" viewBox="0 0 24 24" fill="none" xmlns="http://www.w3.org/2000/svg">
<path d="M21.1667 6H2.83333C2.3731 6 2 6.3731 2 6.83333V20.1667C2 20.6269 2.3731 21 2.83333 21H21.1667C21.6269 21 22 20.6269 22 20.1667V6.83333C22 6.3731 21.6269 6 21.1667 6Z" stroke="white" stroke-width="2" stroke-linecap="round" stroke-linejoin="round"/>
<path d="M8 6C8 4.93913 8.42143 3.92172 9.17157 3.17157C9.92172 2.42143 10.9391 2 12 2C13.0609 2 14.0783 2.42143 14.8284 3.17157C15.5786 3.92172 16 4.93913 16 6" stroke="white" stroke-width="2" stroke-linecap="round" stroke-linejoin="round"/>
<path d="M2 13H22" stroke="white" stroke-width="2" stroke-linecap="round"/>
</svg>
