<svg width="32" height="32" viewBox="0 0 32 32" fill="none" xmlns="http://www.w3.org/2000/svg">
<path d="M20.0001 4H5.33341C4.62617 4 3.94789 4.28095 3.4478 4.78105C2.9477 5.28115 2.66675 5.95942 2.66675 6.66667V25.3333C2.66675 26.0406 2.9477 26.7189 3.4478 27.219C3.94789 27.719 4.62617 28 5.33341 28H24.0001C24.7073 28 25.3856 27.719 25.8857 27.219C26.3858 26.7189 26.6667 26.0406 26.6667 25.3333V18.6667" stroke="white" stroke-width="2" stroke-linecap="square" stroke-linejoin="round"/>
<path d="M24.7045 6.36839C25.234 5.83705 25.9529 5.53783 26.703 5.53655C27.4532 5.53527 28.1731 5.83203 28.7045 6.36156C29.2358 6.89109 29.535 7.61 29.5363 8.36015C29.5376 9.11029 29.2408 9.83022 28.7113 10.3616L18.8898 20.2166L13.5588 21.559L14.883 16.2234L24.7045 6.36839Z" stroke="white" stroke-width="2" stroke-linecap="square" stroke-linejoin="round"/>
<path d="M8 10.6667H13.3333" stroke="white" stroke-width="2" stroke-linecap="square"/>
<path d="M8 16H9.33333" stroke="white" stroke-width="2" stroke-linecap="square"/>
<path d="M8 21.3333H9.33333" stroke="white" stroke-width="2" stroke-linecap="square"/>
</svg>
