<svg width="253" height="72" viewBox="0 0 253 72" fill="none" xmlns="http://www.w3.org/2000/svg">
<g clip-path="url(#clip0_1308_1401)">
<path d="M39.612 0H19.5025V4.1056H24.5868L25.9527 8.89546L1.89723 50.6357C-2.04878 57.4784 0.30365 66.1457 7.13328 70.0993C13.9629 74.0528 22.6138 71.6959 26.5598 64.8532L36.956 46.8342L42.875 67.2101H37.7149V71.3157H60.3285L39.612 0ZM25.801 53.0686C23.6762 56.7941 18.8954 58.0106 15.253 55.8817C11.5346 53.7529 10.3204 48.963 12.4452 45.3136L28.4569 17.4868L34.4518 38.0908L25.801 53.0686Z" fill="#FD0800"/>
<path d="M76.492 45.3896L75.5814 42.4245H69.4348L68.4482 45.3896H63.2881L70.573 25.3939H74.3673L81.6522 45.3896H76.492ZM72.6219 32.9968L70.8007 38.3189H74.2914L72.6219 32.9968Z" fill="#FD0800"/>
<path d="M90.8344 38.2429H87.8749V45.3896H82.9424V25.3939H90.8344C94.7804 25.3939 97.664 28.0549 97.664 31.8564C97.664 35.6579 94.7804 38.2429 90.8344 38.2429ZM90.6068 29.8036H87.799V33.8331H90.6068C91.8209 33.8331 92.7315 32.9968 92.7315 31.7803C92.7315 30.5639 91.8209 29.8036 90.6068 29.8036Z" fill="#FD0800"/>
<path d="M109.122 45.3896V38.0148C108.439 38.2429 106.694 38.699 104.645 38.699C101.913 38.699 99.4092 36.4181 99.4092 33.377V25.3939H104.342V32.5406C104.342 33.6051 105.328 34.2893 106.391 34.2893C107.453 34.2893 108.667 34.0612 109.122 33.8331V25.3939H114.055V45.3896H109.122Z" fill="#FD0800"/>
<path d="M117.318 45.3896V25.3939H130.901V29.8036H122.25V33.1489H129.611V37.5586H122.25V41.056H130.901V45.4657H117.318V45.3896Z" fill="#FD0800"/>
<path d="M141.525 38.2429H138.566V45.3896H133.633V25.3939H141.525C145.471 25.3939 148.355 28.0549 148.355 31.8564C148.355 35.6579 145.547 38.2429 141.525 38.2429ZM141.298 29.8036H138.49V33.8331H141.298C142.512 33.8331 143.422 32.9968 143.422 31.7803C143.422 30.5639 142.588 29.8036 141.298 29.8036Z" fill="#FD0800"/>
<path d="M177.343 29.8036V45.3896H172.41V25.3939H185.235V29.8036H177.343Z" fill="#FD0800"/>
<path d="M195.024 38.2429H192.064V45.3896H187.132V25.3939H195.024C198.97 25.3939 201.854 28.0549 201.854 31.8564C201.854 35.6579 199.046 38.2429 195.024 38.2429ZM194.872 29.8036H192.064V33.8331H194.872C196.086 33.8331 196.997 32.9968 196.997 31.7803C196.997 30.5639 196.086 29.8036 194.872 29.8036Z" fill="#FD0800"/>
<path d="M211.642 41.8923C210.884 43.641 209.442 45.3896 206.862 45.3896H204.13V40.9799H205.875C207.393 40.9799 207.924 39.8395 208.076 39.0792L201.777 25.3939H206.862L210.352 33.7571L213.539 25.3939H218.624L211.642 41.8923Z" fill="#FD0800"/>
<path d="M229.931 45.3896V29.8036H224.695V45.3896H219.762V25.3939H234.787V45.3896H229.931Z" fill="#FD0800"/>
<path d="M248.067 45.3896V29.8036H242.831V45.3896H237.899V25.3939H252.924V45.3896H248.067Z" fill="#FD0800"/>
<path d="M159.738 21.2883H158.144V49.1151H159.738V21.2883Z" fill="#FD0800"/>
</g>
<defs>
<clipPath id="clip0_1308_1401">
<rect width="253" height="72" fill="white"/>
</clipPath>
</defs>
</svg>
