<svg width="50" height="70" viewBox="0 0 50 70" fill="none" xmlns="http://www.w3.org/2000/svg">
<mask id="path-1-inside-1_1123_1480" fill="white">
<path fill-rule="evenodd" clip-rule="evenodd" d="M32.0658 48.9875C42.4321 45.9389 50 36.3532 50 25C50 11.1929 38.8071 0 25 0C11.1929 0 0 11.1929 0 25C0 37.1256 8.63258 47.2349 20.0872 49.5174L26 70L32.0658 48.9875Z"/>
</mask>
<path fill-rule="evenodd" clip-rule="evenodd" d="M32.0658 48.9875C42.4321 45.9389 50 36.3532 50 25C50 11.1929 38.8071 0 25 0C11.1929 0 0 11.1929 0 25C0 37.1256 8.63258 47.2349 20.0872 49.5174L26 70L32.0658 48.9875Z" fill="white"/>
<path d="M32.0658 48.9875L31.5015 47.0688L30.4486 47.3784L30.1442 48.4328L32.0658 48.9875ZM20.0872 49.5174L22.0087 48.9627L21.6713 47.7938L20.478 47.556L20.0872 49.5174ZM26 70L24.0785 70.5547L26 77.2111L27.9215 70.5547L26 70ZM48 25C48 35.442 41.0398 44.2636 31.5015 47.0688L32.6301 50.9063C43.8244 47.6141 52 37.2644 52 25H48ZM25 2C37.7025 2 48 12.2975 48 25H52C52 10.0883 39.9117 -2 25 -2V2ZM2 25C2 12.2975 12.2975 2 25 2V-2C10.0883 -2 -2 10.0883 -2 25H2ZM20.478 47.556C9.94072 45.4563 2 36.1532 2 25H-2C-2 38.0979 7.32444 49.0136 19.6963 51.4789L20.478 47.556ZM27.9215 69.4453L22.0087 48.9627L18.1657 50.0721L24.0785 70.5547L27.9215 69.4453ZM30.1442 48.4328L24.0785 69.4453L27.9215 70.5547L33.9873 49.5422L30.1442 48.4328Z" fill="#B4B4B4" mask="url(#path-1-inside-1_1123_1480)"/>
<path d="M27.7907 11H20.7927V12.4252H22.562L23.0374 14.088L14.6662 28.5776C13.293 30.953 14.1116 33.9618 16.4883 35.3342C18.865 36.7066 21.8754 35.8884 23.2486 33.5131L26.8665 27.258L28.9263 34.3313H27.1305V35.7565H35L27.7907 11ZM22.9846 29.4222C22.2451 30.7155 20.5815 31.1377 19.3139 30.3987C18.0199 29.6597 17.5974 27.997 18.3368 26.7301L23.9088 17.0704L25.995 24.2228L22.9846 29.4222Z" fill="#595959"/>
</svg>
